<svg width="150" height="150" viewBox="0 0 150 150" fill="none" xmlns="http://www.w3.org/2000/svg">
  <rect width="150" height="150" fill="white"/>
  <rect x="10" y="10" width="40" height="40" fill="#1F2937"/>
  <rect x="15" y="15" width="30" height="30" fill="white"/>
  <rect x="20" y="20" width="20" height="20" fill="#1F2937"/>
  <rect x="100" y="10" width="40" height="40" fill="#1F2937"/>
  <rect x="105" y="15" width="30" height="30" fill="white"/>
  <rect x="110" y="20" width="20" height="20" fill="#1F2937"/>
  <rect x="10" y="100" width="40" height="40" fill="#1F2937"/>
  <rect x="15" y="105" width="30" height="30" fill="white"/>
  <rect x="20" y="110" width="20" height="20" fill="#1F2937"/>
  <rect x="70" y="10" width="10" height="10" fill="#1F2937"/>
  <rect x="60" y="20" width="10" height="10" fill="#1F2937"/>
  <rect x="80" y="30" width="10" height="10" fill="#1F2937"/>
  <rect x="60" y="60" width="30" height="30" rx="4" fill="#F59E0B"/>
  <text x="75" y="82" text-anchor="middle" font-family="system-ui" font-size="16" fill="white" font-weight="bold">P</text>
  <rect x="110" y="60" width="10" height="10" fill="#1F2937"/>
  <rect x="100" y="70" width="10" height="10" fill="#1F2937"/>
  <rect x="130" y="80" width="10" height="10" fill="#1F2937"/>
  <rect x="70" y="100" width="10" height="10" fill="#1F2937"/>
  <rect x="60" y="120" width="10" height="10" fill="#1F2937"/>
  <rect x="80" y="130" width="10" height="10" fill="#1F2937"/>
  <rect x="100" y="100" width="40" height="40" fill="none" stroke="#1F2937" stroke-width="2"/>
  <rect x="115" y="115" width="10" height="10" fill="#1F2937"/>
</svg>
