<svg width="400" height="300" viewBox="0 0 400 300" fill="none" xmlns="http://www.w3.org/2000/svg">
  <rect width="400" height="300" rx="16" fill="#F0FDF4"/>

  <!-- Package stack -->
  <rect x="80" y="140" width="80" height="60" rx="8" fill="#10B981"/>
  <rect x="90" y="150" width="60" height="40" rx="4" fill="white"/>
  <line x1="100" y1="165" x2="140" y2="165" stroke="#10B981" stroke-width="2"/>
  <line x1="100" y1="175" x2="130" y2="175" stroke="#10B981" stroke-width="2"/>

  <rect x="100" y="100" width="70" height="50" rx="6" fill="#F59E0B"/>
  <line x1="110" y1="120" x2="160" y2="120" stroke="white" stroke-width="2"/>
  <line x1="110" y1="130" x2="145" y2="130" stroke="white" stroke-width="2"/>

  <rect x="140" y="130" width="60" height="45" rx="6" fill="#3B82F6"/>
  <path d="M155 152L165 162L180 147" stroke="white" stroke-width="3" stroke-linecap="round"/>

  <!-- Delivery person -->
  <g transform="translate(250, 100)">
    <circle cx="40" cy="30" r="25" fill="#FBBF24"/>
    <circle cx="33" cy="25" r="3" fill="#1F2937"/>
    <circle cx="47" cy="25" r="3" fill="#1F2937"/>
    <path d="M35 38Q40 44 45 38" stroke="#1F2937" stroke-width="2" stroke-linecap="round"/>
    <rect x="20" y="55" width="40" height="70" rx="8" fill="#10B981"/>
    <rect x="10" y="60" width="15" height="40" rx="4" fill="#10B981"/>
    <rect x="55" y="60" width="15" height="40" rx="4" fill="#10B981"/>
    <rect x="25" y="125" width="12" height="50" rx="4" fill="#374151"/>
    <rect x="43" y="125" width="12" height="50" rx="4" fill="#374151"/>
  </g>

  <!-- Arrow -->
  <path d="M200 170H230L220 160M230 170L220 180" stroke="#10B981" stroke-width="3" stroke-linecap="round" stroke-linejoin="round"/>

  <text x="200" y="260" text-anchor="middle" font-family="system-ui" font-size="18" fill="#374151" font-weight="600">Goods Delivery</text>
</svg>
